<?xml version="1.0" encoding="iso-8859-1"?>
<!-- Uploaded to: SVG Repo, www.svgrepo.com, Generator: SVG Repo Mixer Tools -->
<!DOCTYPE svg PUBLIC "-//W3C//DTD SVG 1.1//EN" "http://www.w3.org/Graphics/SVG/1.1/DTD/svg11.dtd">
<svg height="800px" width="800px" version="1.1" id="Capa_1" xmlns="http://www.w3.org/2000/svg" xmlns:xlink="http://www.w3.org/1999/xlink" 
	 viewBox="0 0 135.001 135.001" xml:space="preserve">
<g>
	<circle style="fill:#2EBCEE;" cx="67.501" cy="67.501" r="67.501"/>
	<g>
		<circle style="fill-rule:evenodd;clip-rule:evenodd;fill:#FEFEFE;" cx="66.693" cy="67.231" r="33.392"/>
		<circle style="fill-rule:evenodd;clip-rule:evenodd;fill:#FEC820;" cx="66.693" cy="67.231" r="30.333"/>
		<path style="fill-rule:evenodd;clip-rule:evenodd;fill:#FEB810;" d="M66.793,36.901c-0.033,0-0.066-0.003-0.1-0.003
			c-16.753,0-30.333,13.581-30.333,30.333c0,16.753,13.58,30.333,30.333,30.333c0.033,0,0.066-0.002,0.1-0.002V36.901z"/>
		<g>
			<g>
				<path style="fill:#FF6F00;" d="M55.324,76.538H44.931v-2.187l3.732-3.773c1.105-1.132,1.827-1.917,2.166-2.354
					s0.583-0.842,0.732-1.215c0.149-0.373,0.224-0.759,0.224-1.16c0-0.596-0.165-1.041-0.493-1.332
					c-0.329-0.292-0.768-0.438-1.317-0.438c-0.577,0-1.136,0.132-1.678,0.397c-0.542,0.264-1.108,0.641-1.698,1.129l-1.708-2.024
					c0.732-0.624,1.339-1.064,1.82-1.322c0.481-0.257,1.007-0.456,1.576-0.595c0.57-0.139,1.207-0.208,1.912-0.208
					c0.929,0,1.749,0.169,2.461,0.508c0.712,0.339,1.265,0.813,1.658,1.424c0.394,0.61,0.59,1.309,0.59,2.095
					c0,0.685-0.12,1.327-0.361,1.927s-0.614,1.215-1.119,1.846c-0.505,0.63-1.395,1.529-2.669,2.695l-1.912,1.8v0.143h6.478V76.538z
					"/>
				<path style="fill:#FF6F00;" d="M67.549,73.456h-1.79v3.082h-3.071v-3.082h-6.346V71.27l6.519-9.601h2.898v9.346h1.79V73.456z
					 M62.688,71.015v-2.522c0-0.42,0.017-1.031,0.051-1.831c0.034-0.8,0.061-1.265,0.082-1.394h-0.082
					c-0.251,0.556-0.553,1.099-0.905,1.627l-2.726,4.119H62.688z"/>
				<path style="fill:#FF6F00;" d="M76.376,61.669l-5.542,14.869h-2.817l5.542-14.869H76.376z"/>
				<path style="fill:#FF6F00;" d="M78.787,76.538l5.583-12.204h-7.333v-2.644h10.668v1.973l-5.624,12.875H78.787z"/>
			</g>
		</g>
	</g>
</g>
</svg>