<?xml version="1.0" encoding="utf-8"?><!-- Uploaded to: SVG Repo, www.svgrepo.com, Generator: SVG Repo Mixer Tools -->
<svg width="800px" height="800px" viewBox="0 0 24 24" fill="none" xmlns="http://www.w3.org/2000/svg">
<path d="M4.19995 18V11C4.19995 9.34315 5.5431 8 7.19995 8H16.8C18.4568 8 19.8 9.34315 19.8 11V18C19.8 19.6569 18.4568 21 16.8 21H7.19995C5.5431 21 4.19995 19.6569 4.19995 18Z" stroke="#1C1C1C" stroke-width="1.7"/>
<path d="M12 5L12 8" stroke="#1C1C1C" stroke-width="1.7" stroke-linecap="round"/>
<path d="M20 12H21C22.1046 12 23 12.8954 23 14V15.4459C23 16.2637 22.5021 16.9992 21.7428 17.3029L20 18" stroke="#1C1C1C" stroke-width="1.7"/>
<path d="M4 12H3C1.89543 12 1 12.8954 1 14V15.4459C1 16.2637 1.4979 16.9992 2.25722 17.3029L4 18" stroke="#1C1C1C" stroke-width="1.7"/>
<path fill-rule="evenodd" clip-rule="evenodd" d="M15.9999 11.15C16.4693 11.15 16.8499 11.5306 16.8499 12V14C16.8499 14.4695 16.4693 14.85 15.9999 14.85C15.5305 14.85 15.1499 14.4695 15.1499 14V12C15.1499 11.5306 15.5305 11.15 15.9999 11.15Z" fill="#1C1C1C"/>
<path fill-rule="evenodd" clip-rule="evenodd" d="M7.9999 11.15C8.46934 11.15 8.8499 11.5306 8.8499 12V14C8.8499 14.4695 8.46934 14.85 7.9999 14.85C7.53046 14.85 7.1499 14.4695 7.1499 14V12C7.1499 11.5306 7.53046 11.15 7.9999 11.15Z" fill="#1C1C1C"/>
<circle cx="12" cy="3" r="2" fill="#DF1463"/>
<path d="M10 17H14" stroke="#1C1C1C" stroke-width="1.7" stroke-linecap="round"/>
<path d="M22 12V10" stroke="#1C1C1C" stroke-width="1.7" stroke-linecap="round"/>
<path d="M2 12V10" stroke="#1C1C1C" stroke-width="1.7" stroke-linecap="round"/>
</svg>