<?xml version="1.0" encoding="utf-8"?><!-- Uploaded to: SVG Repo, www.svgrepo.com, Generator: SVG Repo Mixer Tools -->
<svg width="800px" height="800px" viewBox="0 0 32 32" fill="none" xmlns="http://www.w3.org/2000/svg">
<path d="M22.63 4.81C21.7703 3.92032 20.7401 3.21298 19.601 2.73019C18.4619 2.2474 17.2372 1.99906 16 2C13.6131 2 11.3239 2.94821 9.63604 4.63604C7.94821 6.32387 7 8.61305 7 11C7.09005 12.6803 7.56932 14.3166 8.4 15.78C8.66066 16.2975 8.89431 16.8283 9.1 17.37L11.1 22.37C11.1721 22.5514 11.2958 22.7077 11.4557 22.8197C11.6157 22.9316 11.8049 22.9943 12 23H20C20.2003 23.0002 20.396 22.9402 20.5618 22.8279C20.7276 22.7156 20.8559 22.5561 20.93 22.37L22.93 17.37C23.16 16.8 23.4 16.27 23.63 15.75C24.4114 14.2789 24.878 12.6613 25 11C25.042 9.86183 24.8537 8.72689 24.4464 7.66324C24.0392 6.59958 23.4214 5.62911 22.63 4.81Z" fill="#FBC02D"/>
<path d="M20 24H12C11.7348 24 11.4804 24.1054 11.2929 24.2929C11.1054 24.4804 11 24.7348 11 25V28C10.9987 28.1864 11.0495 28.3694 11.1467 28.5284C11.2439 28.6874 11.3836 28.8161 11.55 28.9L13.55 29.9C13.6902 29.9679 13.8443 30.0022 14 30H18C18.1557 30.0022 18.3098 29.9679 18.45 29.9L20.45 28.9C20.6164 28.8161 20.7561 28.6874 20.8533 28.5284C20.9505 28.3694 21.0013 28.1864 21 28V25C21 24.7348 20.8946 24.4804 20.7071 24.2929C20.5196 24.1054 20.2652 24 20 24Z" fill="#FF6F00"/>
<path d="M20 14H12C11.8301 14.0003 11.6628 13.9574 11.5141 13.8751C11.3654 13.7929 11.2401 13.6741 11.15 13.53C11.0622 13.378 11.016 13.2055 11.016 13.03C11.016 12.8545 11.0622 12.682 11.15 12.53L13.15 8.53C13.2326 8.37471 13.3546 8.24395 13.5038 8.1509C13.6531 8.05785 13.8242 8.0058 14 8H18C18.2652 8 18.5196 8.10536 18.7071 8.29289C18.8946 8.48043 19 8.73478 19 9C19 9.26522 18.8946 9.51957 18.7071 9.70711C18.5196 9.89464 18.2652 10 18 10H14.66L13.66 12H20C20.2652 12 20.5196 12.1054 20.7071 12.2929C20.8946 12.4804 21 12.7348 21 13C21 13.2652 20.8946 13.5196 20.7071 13.7071C20.5196 13.8946 20.2652 14 20 14Z" fill="#FAFAFA"/>
<path d="M16 18C15.7348 18 15.4804 17.8946 15.2929 17.7071C15.1054 17.5196 15 17.2652 15 17V13C15 12.7348 15.1054 12.4804 15.2929 12.2929C15.4804 12.1054 15.7348 12 16 12C16.2652 12 16.5196 12.1054 16.7071 12.2929C16.8946 12.4804 17 12.7348 17 13V17C17 17.2652 16.8946 17.5196 16.7071 17.7071C16.5196 17.8946 16.2652 18 16 18Z" fill="#FAFAFA"/>
<path d="M16 2C13.6131 2 11.3239 2.94821 9.63604 4.63604C7.94821 6.32387 7 8.61305 7 11C7.0807 12.676 7.55336 14.3098 8.38 15.77C8.64 16.32 8.88 16.83 9.08 17.37L11.08 22.37C11.1535 22.5545 11.2802 22.7129 11.444 22.8251C11.6079 22.9373 11.8014 22.9982 12 23H16V2Z" fill="#FFEE58"/>
<path d="M12 24C11.7348 24 11.4804 24.1054 11.2929 24.2929C11.1054 24.4804 11 24.7348 11 25V28C11.0015 28.1857 11.0547 28.3674 11.1536 28.5245C11.2525 28.6817 11.3932 28.8083 11.56 28.89L13.56 29.89C13.6963 29.9599 13.8468 29.9975 14 30H16V24H12Z" fill="#FF8F00"/>
<path d="M18 10C18.2652 10 18.5196 9.89464 18.7071 9.70711C18.8946 9.51957 19 9.26522 19 9C19 8.73478 18.8946 8.48043 18.7071 8.29289C18.5196 8.10536 18.2652 8 18 8H16V10H18Z" fill="#FF6F00"/>
<path d="M20 12H16V14H20C20.2652 14 20.5196 13.8946 20.7071 13.7071C20.8946 13.5196 21 13.2652 21 13C21 12.7348 20.8946 12.4804 20.7071 12.2929C20.5196 12.1054 20.2652 12 20 12Z" fill="#FF6F00"/>
<path d="M13.6 12L14.6 10H16V8H14C13.8153 8.00056 13.6344 8.05224 13.4773 8.14932C13.3202 8.2464 13.1931 8.38509 13.11 8.55L11.11 12.55C11.0222 12.702 10.976 12.8745 10.976 13.05C10.976 13.2255 11.0222 13.398 11.11 13.55C11.206 13.6963 11.3387 13.8149 11.4949 13.8939C11.6511 13.9728 11.8252 14.0094 12 14H16V12H13.6Z" fill="#FF8F00"/>
<path d="M15 13V17C15 17.2652 15.1054 17.5196 15.2929 17.7071C15.4804 17.8946 15.7348 18 16 18V12C15.7348 12 15.4804 12.1054 15.2929 12.2929C15.1054 12.4804 15 12.7348 15 13Z" fill="#FF8F00"/>
<path d="M16 12V18C16.2652 18 16.5196 17.8946 16.7071 17.7071C16.8946 17.5196 17 17.2652 17 17V13C17 12.7348 16.8946 12.4804 16.7071 12.2929C16.5196 12.1054 16.2652 12 16 12Z" fill="#FF6F00"/>
<path d="M20 23H12C11.8014 22.9982 11.6079 22.9373 11.444 22.8251C11.2802 22.7129 11.1535 22.5545 11.08 22.37L9.08 17.37C8.88 16.83 8.64 16.32 8.38 15.77C7.55336 14.3098 7.0807 12.676 7 11C7 8.61305 7.94821 6.32387 9.63604 4.63604C11.3239 2.94821 13.6131 2 16 2C17.234 2.00061 18.4552 2.24973 19.5909 2.7325C20.7265 3.21528 21.7533 3.92183 22.61 4.81C23.4073 5.62575 24.0304 6.59519 24.4413 7.65933C24.8522 8.72347 25.0422 9.86007 25 11C24.8743 12.6434 24.4113 14.2434 23.64 15.7C23.4 16.21 23.16 16.7 22.94 17.32L20.94 22.32C20.8735 22.517 20.7472 22.6884 20.5787 22.8103C20.4102 22.9321 20.2079 22.9985 20 23ZM12.68 21H19.33L21 16.63C21.23 16.02 21.49 15.46 21.74 14.91C22.4201 13.7053 22.8487 12.3751 23 11C23.0315 10.121 22.8837 9.24475 22.5657 8.42469C22.2476 7.60463 21.766 6.8579 21.15 6.23C20.4846 5.53245 19.6859 4.97563 18.8012 4.59257C17.9166 4.20951 16.964 4.008 16 4C14.1435 4 12.363 4.7375 11.0503 6.05025C9.7375 7.36301 9 9.14348 9 11C9.09061 12.3762 9.4942 13.7135 10.18 14.91C10.4639 15.4796 10.7176 16.0637 10.94 16.66L12.68 21Z" fill="#263238"/>
<path d="M18 30H14C13.8468 29.9975 13.6963 29.9599 13.56 29.89L11.56 28.89C11.3932 28.8083 11.2525 28.6817 11.1536 28.5245C11.0547 28.3674 11.0015 28.1857 11 28V25C11 24.7348 11.1054 24.4804 11.2929 24.2929C11.4804 24.1054 11.7348 24 12 24H20C20.2652 24 20.5196 24.1054 20.7071 24.2929C20.8946 24.4804 21 24.7348 21 25V28C20.9994 28.1847 20.9478 28.3656 20.8507 28.5227C20.7536 28.6798 20.6149 28.8069 20.45 28.89L18.45 29.89C18.3107 29.9614 18.1565 29.9991 18 30ZM14.24 28H17.77L19 27.38V26H13V27.38L14.24 28Z" fill="#263238"/>
</svg>