<?xml version="1.0" encoding="iso-8859-1"?>
<!-- Uploaded to: SVG Repo, www.svgrepo.com, Generator: SVG Repo Mixer Tools -->
<svg height="800px" width="800px" version="1.1" id="Layer_1" xmlns="http://www.w3.org/2000/svg" xmlns:xlink="http://www.w3.org/1999/xlink" 
	 viewBox="0 0 512 512" xml:space="preserve">
<circle style="fill:#B5F1F4;" cx="256" cy="256" r="256"/>
<path style="fill:#84DBFF;" d="M305.976,507.109c101.292-20.047,181.086-99.84,201.131-201.133L376.679,175.547l-22.79,7.677
	l-69.442-69.446l-94.815,109.18l0.6,0.6l-76.452,60.887l65.405,65.405l-3.636,26.831L305.976,507.109z"/>
<path style="fill:#324A5E;" d="M398.224,284.444v-56.889h-32.028c-2.686-10.438-6.839-20.282-12.186-29.336l22.673-22.673
	l-40.227-40.227l-22.673,22.673c-9.052-5.349-18.897-9.5-29.336-12.186v-32.028h-56.889v32.028
	c-10.438,2.686-20.282,6.839-29.336,12.186l-22.673-22.673l-40.227,40.226l22.673,22.673c-5.349,9.052-9.5,18.897-12.186,29.336
	h-32.028v56.889h32.028c2.686,10.438,6.839,20.282,12.186,29.336l-22.673,22.673l40.226,40.227l22.673-22.673
	c9.052,5.349,18.897,9.5,29.336,12.186v32.03h56.889v-32.028c10.438-2.686,20.282-6.837,29.336-12.186l22.673,22.673l40.226-40.226
	l-22.673-22.673c5.349-9.052,9.5-18.897,12.186-29.336h32.032V284.444z M256.002,312.889c-31.418,0-56.889-25.471-56.889-56.889
	s25.471-56.889,56.889-56.889s56.889,25.471,56.889,56.889S287.42,312.889,256.002,312.889z"/>
<path style="fill:#2B3B4E;" d="M398.224,284.444v-56.889h-32.028c-2.686-10.438-6.839-20.282-12.186-29.336l22.673-22.673
	l-40.227-40.227l-22.673,22.673c-9.052-5.349-18.897-9.5-29.336-12.186v-32.028h-29.019v85.347c0.191-0.002,0.381-0.014,0.574-0.014
	c31.418,0,56.889,25.471,56.889,56.889s-25.471,56.889-56.889,56.889c-0.193,0-0.383-0.012-0.574-0.014v85.347h29.019v-32.028
	c10.438-2.686,20.282-6.837,29.336-12.186l22.673,22.673l40.226-40.226l-22.673-22.673c5.349-9.052,9.5-18.897,12.186-29.336h32.03
	V284.444z"/>
<path style="fill:#F9B54C;" d="M256.002,347.367c-50.381,0-91.367-40.986-91.367-91.367s40.986-91.367,91.367-91.367
	s91.367,40.986,91.367,91.367S306.381,347.367,256.002,347.367z M256.002,176.7c-43.725,0-79.3,35.575-79.3,79.3
	s35.575,79.3,79.3,79.3s79.3-35.575,79.3-79.3S299.727,176.7,256.002,176.7z"/>
<path style="fill:#F4A200;" d="M256.002,164.633c-0.193,0-0.381,0.014-0.574,0.014v12.067c0.193-0.002,0.381-0.014,0.574-0.014
	c43.725,0,79.3,35.575,79.3,79.3s-35.575,79.3-79.3,79.3c-0.193,0-0.381-0.014-0.574-0.014v12.067
	c0.193,0.002,0.381,0.014,0.574,0.014c50.381,0,91.367-40.986,91.367-91.367S306.381,164.633,256.002,164.633z"/>
<polygon style="fill:#734B46;" points="241.636,287.265 218.938,264.563 226.992,256.509 241.636,271.157 285.01,227.781 
	293.066,235.837 "/>
<polygon style="fill:#57442F;" points="285.01,227.781 255.426,257.365 255.426,273.475 293.066,235.837 "/>
</svg>